<?xml version="1.0" encoding="UTF-8"?>
<svg version="1.1" xmlns="http://www.w3.org/2000/svg" width="217" height="46">
<path d="M0 0 C2.64 0 5.28 0 8 0 C8 10.23 8 20.46 8 31 C5.69 31 3.38 31 1 31 C-0.21693876 28.56612247 -0.31959896 26.58161154 -0.5625 23.875 C-0.68818359 22.50988281 -0.68818359 22.50988281 -0.81640625 21.1171875 C-0.87699219 20.41851563 -0.93757813 19.71984375 -1 19 C-1.4434375 19.64839844 -1.886875 20.29679687 -2.34375 20.96484375 C-4 23 -4 23 -6.5 23.5625 C-7.325 23.376875 -8.15 23.19125 -9 23 C-9.99 21.35 -10.98 19.7 -12 18 C-12.33 22.29 -12.66 26.58 -13 31 C-15.64 31 -18.28 31 -21 31 C-21.08708752 26.7501291 -21.14042181 22.50048761 -21.1875 18.25 C-21.21263672 17.0434375 -21.23777344 15.836875 -21.26367188 14.59375 C-21.27333984 13.43359375 -21.28300781 12.2734375 -21.29296875 11.078125 C-21.3086792 10.00981445 -21.32438965 8.94150391 -21.34057617 7.84082031 C-20.95579961 4.63131489 -20.25563594 3.28120699 -18 1 C-15.51953125 0.4375 -15.51953125 0.4375 -13 1 C-11.19921875 3.1875 -11.19921875 3.1875 -9.6875 6 C-9.17574219 6.928125 -8.66398437 7.85625 -8.13671875 8.8125 C-7.76160156 9.534375 -7.38648438 10.25625 -7 11 C-5.07010324 8.50053485 -3.35035822 6.00753888 -1.8125 3.25 C-1.214375 2.1775 -0.61625 1.105 0 0 Z " fill="#3370AE" transform="translate(32,8)"/>
<path d="M0 0 C17.65251989 -0.58355438 17.65251989 -0.58355438 23 4 C25.47730643 7.62718245 25.29971674 11.13806453 25.3125 15.4375 C25.32925781 16.73558594 25.34601563 18.03367187 25.36328125 19.37109375 C24.8742415 24.25623271 23.59511416 26.65567161 19.86328125 29.80078125 C15.90022643 31.46061458 12.42949896 31.32509809 8.1875 31.1875 C4.1346875 31.0946875 4.1346875 31.0946875 0 31 C0 20.77 0 10.54 0 0 Z M8 7 C8 12.61 8 18.22 8 24 C10.31 24 12.62 24 15 24 C17.69101234 21.30898766 17.29887549 19.80924054 17.3125 16.0625 C17.32925781 15.00160156 17.34601563 13.94070312 17.36328125 12.84765625 C17.20250488 10.04488628 17.20250488 10.04488628 15.85546875 8.12109375 C13.50541102 6.48285686 13.50541102 6.48285686 8 7 Z " fill="#3574B5" transform="translate(76,8)"/>
<path d="M0 0 C2.76220704 4.14331056 2.36768911 7.50594895 2.375 12.375 C2.39949219 13.22578125 2.42398438 14.0765625 2.44921875 14.953125 C2.46876125 19.13522013 2.37478474 21.39894481 0.1171875 25.01953125 C-3.84159371 28.72267161 -7.5900444 29.45093472 -13.00390625 29.328125 C-17.19947944 28.63844174 -20.08795336 25.91204664 -23 23 C-24.28234177 19.44067958 -24.2019699 15.81285005 -24.25 12.0625 C-24.27578125 10.85722656 -24.3015625 9.65195312 -24.328125 8.41015625 C-23.89173202 3.87478633 -22.41617152 1.27912266 -19.0625 -1.75 C-12.91366594 -5.4765661 -5.58460471 -4.27058007 0 0 Z M-15 5 C-15.96306898 7.88920694 -16.1955936 9.92247881 -16.25 12.9375 C-16.27578125 13.79214844 -16.3015625 14.64679687 -16.328125 15.52734375 C-15.93876562 18.46144478 -14.93350171 19.80700201 -13 22 C-9.18186553 21.72459296 -9.18186553 21.72459296 -6 20 C-5.90067608 17.68925832 -5.87030382 15.37537058 -5.875 13.0625 C-5.87242187 11.79535156 -5.86984375 10.52820312 -5.8671875 9.22265625 C-5.77493931 6.10845111 -5.77493931 6.10845111 -7 4 C-10.28681929 2.63993685 -12.09139284 2.99406403 -15 5 Z " fill="#386FAA" transform="translate(179,11)"/>
<path d="M0 0 C7.59 0 15.18 0 23 0 C23 2.31 23 4.62 23 7 C18.05 7 13.1 7 8 7 C8 8.65 8 10.3 8 12 C12.29 12 16.58 12 21 12 C22 17 22 17 21 19 C16.71 19 12.42 19 8 19 C8 20.65 8 22.3 8 24 C9.60681641 23.98259766 9.60681641 23.98259766 11.24609375 23.96484375 C12.64322743 23.95546701 14.04036299 23.94636669 15.4375 23.9375 C16.14455078 23.92912109 16.85160156 23.92074219 17.58007812 23.91210938 C19.38693559 23.90346412 21.19387603 23.94779989 23 24 C24 25 24 25 24 31 C16.08 31 8.16 31 0 31 C0 20.77 0 10.54 0 0 Z " fill="#336495" transform="translate(47,8)"/>
<path d="M0 0 C2.40367591 2.77925027 2.75310468 4.69136858 3 8.3125 C-0.375 8.4375 -0.375 8.4375 -4 8.3125 C-4.66 7.6525 -5.32 6.9925 -6 6.3125 C-8.31 5.9825 -10.62 5.6525 -13 5.3125 C-13 10.5925 -13 15.8725 -13 21.3125 C-11.02 21.6425 -9.04 21.9725 -7 22.3125 C-6.649375 21.6525 -6.29875 20.9925 -5.9375 20.3125 C-4 18.3125 -4 18.3125 -0.3125 18.0625 C0.780625 18.145 1.87375 18.2275 3 18.3125 C2.63166144 24.69703501 2.63166144 24.69703501 -0.4375 27.6875 C-4.68649574 30.3819851 -8.00842124 30.83303708 -13 30.3125 C-17.20578424 28.72541161 -19.82787536 27.26464655 -22 23.3125 C-22.49446982 20.16172765 -22.50965694 17.05937543 -22.5 13.875 C-22.52835937 13.02873047 -22.55671875 12.18246094 -22.5859375 11.31054688 C-22.6000007 6.82086913 -22.48380877 4.92200418 -19.609375 1.30078125 C-13.32560276 -3.48730269 -6.9474152 -3.90792105 0 0 Z " fill="#376EA8" transform="translate(148,9.6875)"/>
<path d="M0 0 C1.39456452 0.00667256 2.78911118 0.01863093 4.18359375 0.03515625 C4.89451172 0.03966797 5.60542969 0.04417969 6.33789062 0.04882812 C8.09899388 0.06064761 9.86005411 0.07858362 11.62109375 0.09765625 C11.62109375 2.40765625 11.62109375 4.71765625 11.62109375 7.09765625 C10.30109375 7.09765625 8.98109375 7.09765625 7.62109375 7.09765625 C7.62109375 12.70765625 7.62109375 18.31765625 7.62109375 24.09765625 C9.27109375 24.42765625 10.92109375 24.75765625 12.62109375 25.09765625 C12.66381475 26.7637753 12.66173207 28.4314851 12.62109375 30.09765625 C11.62109375 31.09765625 11.62109375 31.09765625 8.0234375 31.1953125 C6.53512508 31.18863845 5.04682943 31.17667808 3.55859375 31.16015625 C2.79998047 31.15564453 2.04136719 31.15113281 1.25976562 31.14648438 C-0.61982496 31.13466305 -2.49937524 31.11672703 -4.37890625 31.09765625 C-4.37890625 29.11765625 -4.37890625 27.13765625 -4.37890625 25.09765625 C-3.05890625 24.76765625 -1.73890625 24.43765625 -0.37890625 24.09765625 C-0.37890625 18.48765625 -0.37890625 12.87765625 -0.37890625 7.09765625 C-1.69890625 6.76765625 -3.01890625 6.43765625 -4.37890625 6.09765625 C-4.42162725 4.4315372 -4.41954457 2.7638274 -4.37890625 1.09765625 C-3.37890625 0.09765625 -3.37890625 0.09765625 0 0 Z " fill="#3671B0" transform="translate(109.37890625,7.90234375)"/>
<path d="M0 0 C17.65251989 -0.58355438 17.65251989 -0.58355438 23 4 C25.47730643 7.62718245 25.29971674 11.13806453 25.3125 15.4375 C25.32925781 16.73558594 25.34601563 18.03367187 25.36328125 19.37109375 C24.8742415 24.25623271 23.59511416 26.65567161 19.86328125 29.80078125 C15.90022643 31.46061458 12.42949896 31.32509809 8.1875 31.1875 C4.1346875 31.0946875 4.1346875 31.0946875 0 31 C0 20.77 0 10.54 0 0 Z M1 1 C0.94215292 5.12494151 0.90645593 9.24977944 0.875 13.375 C0.85824219 14.550625 0.84148437 15.72625 0.82421875 16.9375 C0.81777344 18.05898438 0.81132813 19.18046875 0.8046875 20.3359375 C0.79421387 21.37282715 0.78374023 22.4097168 0.77294922 23.47802734 C0.74384974 26.17108623 0.74384974 26.17108623 3 28 C3 27.34 3 26.68 3 26 C4.32 26 5.64 26 7 26 C7 19.4 7 12.8 7 6 C8 7 8 7 8.09765625 10.81640625 C8.09098089 12.39846682 8.07901875 13.98051159 8.0625 15.5625 C8.05798828 16.36880859 8.05347656 17.17511719 8.04882812 18.00585938 C8.03700518 20.00393756 8.01906914 22.00197783 8 24 C11.41656024 24.16677282 11.41656024 24.16677282 15 24 C17.32866229 22.11153817 17.32866229 22.11153817 17.1953125 18.9609375 C17.17210938 17.77757813 17.14890625 16.59421875 17.125 15.375 C17.10695313 14.18648437 17.08890625 12.99796875 17.0703125 11.7734375 C17.04710938 10.85820312 17.02390625 9.94296875 17 9 C17.16747412 11.45828079 17.3340144 13.91661865 17.5 16.375 C17.54769531 17.07367187 17.59539062 17.77234375 17.64453125 18.4921875 C18 23.7734375 18 23.7734375 18 26 C19.32 26 20.64 26 22 26 C23.57152719 22.85694562 23.14318589 19.508726 23.125 16.0625 C23.12886719 15.33353516 23.13273437 14.60457031 23.13671875 13.85351562 C23.1308304 10.64142264 23.02261853 8.0678556 22 5 C20.35 5.33 18.7 5.66 17 6 C16.87625 5.360625 16.7525 4.72125 16.625 4.0625 C16.41875 3.381875 16.2125 2.70125 16 2 C13.11584117 0.55792059 10.58278472 0.90605113 7.375 0.9375 C5.59222656 0.95103516 5.59222656 0.95103516 3.7734375 0.96484375 C2.40058594 0.98224609 2.40058594 0.98224609 1 1 Z " fill="#34689D" transform="translate(76,8)"/>
<path d="M0 0 C2.5 0.125 2.5 0.125 3.5 1.125 C3.54092937 3.45797433 3.54241723 5.79205225 3.5 8.125 C4.634375 8.104375 5.76875 8.08375 6.9375 8.0625 C10.5 8.125 10.5 8.125 11.5 9.125 C11.625 11.625 11.625 11.625 11.5 14.125 C10.5 15.125 10.5 15.125 6.9375 15.1875 C5.803125 15.166875 4.66875 15.14625 3.5 15.125 C3.5 17.435 3.5 19.745 3.5 22.125 C1.19 22.125 -1.12 22.125 -3.5 22.125 C-3.5 19.815 -3.5 17.505 -3.5 15.125 C-5.2015625 15.1559375 -5.2015625 15.1559375 -6.9375 15.1875 C-10.5 15.125 -10.5 15.125 -11.5 14.125 C-11.625 11.625 -11.625 11.625 -11.5 9.125 C-10.5 8.125 -10.5 8.125 -6.9375 8.0625 C-5.803125 8.083125 -4.66875 8.10375 -3.5 8.125 C-3.520625 6.990625 -3.54125 5.85625 -3.5625 4.6875 C-3.4833187 0.17416594 -3.4833187 0.17416594 0 0 Z " fill="#3274BA" transform="translate(196.5,12.875)"/>
<path d="M0 0 C2.1875 -0.5 2.1875 -0.5 5 0 C8.35194693 3.80491274 10 6.90325902 10 12 C9.34 12 8.68 12 8 12 C7.67 12.66 7.34 13.32 7 14 C5.68 13.67 4.36 13.34 3 13 C3.165 13.66 3.33 14.32 3.5 15 C4.34903947 20.09423683 4.96968084 24.54547875 2 29 C0.68 28.67 -0.64 28.34 -2 28 C-2.0582462 24.27089934 -2.09367917 20.54191636 -2.125 16.8125 C-2.14175781 15.75740234 -2.15851562 14.70230469 -2.17578125 13.61523438 C-2.18222656 12.59365234 -2.18867188 11.57207031 -2.1953125 10.51953125 C-2.20578613 9.58214111 -2.21625977 8.64475098 -2.22705078 7.67895508 C-1.98166713 4.78369188 -1.20521619 2.62937303 0 0 Z " fill="#3672B2" transform="translate(14,9)"/>
<path d="M0 0 C3 1 3 1 5 4 C5.45051711 7.10970381 5.37028685 10.2360412 5.375 13.375 C5.39949219 14.22578125 5.42398438 15.0765625 5.44921875 15.953125 C5.46876125 20.13522013 5.37478474 22.39894481 3.1171875 26.01953125 C-0.43038009 29.33801237 -3.43168295 30.10149969 -8.1875 30.1875 C-12 30 -12 30 -14 29 C-14 28.34 -14 27.68 -14 27 C-13.34 26.67 -12.68 26.34 -12 26 C-12.33 23.69 -12.66 21.38 -13 19 C-12.62875 19.515625 -12.2575 20.03125 -11.875 20.5625 C-11.25625 21.036875 -10.6375 21.51125 -10 22 C-8.02 21.67 -6.04 21.34 -4 21 C-3.67 15.72 -3.34 10.44 -3 5 C-2.01 5.33 -1.02 5.66 0 6 C0.05394705 8.60444348 0.09364469 11.20776998 0.125 13.8125 C0.14175781 14.55048828 0.15851563 15.28847656 0.17578125 16.04882812 C0.21074628 19.91246426 0.19397555 21.70903668 -2 25 C-0.68 25 0.64 25 2 25 C4.0039735 13.55549725 4.0039735 13.55549725 1 3 C0.67 2.01 0.34 1.02 0 0 Z " fill="#376A9E" transform="translate(176,10)"/>
<path d="M0 0 C1.01973129 3.05919388 1.11533602 5.12418025 1.09765625 8.32421875 C1.09443359 9.35224609 1.09121094 10.38027344 1.08789062 11.43945312 C1.07951172 12.51130859 1.07113281 13.58316406 1.0625 14.6875 C1.05798828 15.77095703 1.05347656 16.85441406 1.04882812 17.97070312 C1.03703743 20.64719085 1.02058063 23.32356777 1 26 C1.99 26 2.98 26 4 26 C5.44207941 23.11584117 5.09394887 20.58278472 5.0625 17.375 C5.05347656 16.18648437 5.04445313 14.99796875 5.03515625 13.7734375 C5.02355469 12.85820312 5.01195312 11.94296875 5 11 C6.62324086 10.77837671 8.248721 10.57310197 9.875 10.375 C10.77992187 10.25898438 11.68484375 10.14296875 12.6171875 10.0234375 C13.40351563 10.01570313 14.18984375 10.00796875 15 10 C15.66 10.66 16.32 11.32 17 12 C16.01 13.485 16.01 13.485 15 15 C14.01 15 13.02 15 12 15 C12 15.66 12 16.32 12 17 C13.32 17.33 14.64 17.66 16 18 C16 17.34 16 16.68 16 16 C16.66 16.33 17.32 16.66 18 17 C16 20 16 20 13.5625 20.5 C12.716875 20.335 11.87125 20.17 11 20 C10.01 18.35 9.02 16.7 8 15 C7.67 19.29 7.34 23.58 7 28 C4.36 28 1.72 28 -1 28 C-1.02891949 23.70834738 -1.04677118 19.41671964 -1.0625 15.125 C-1.07087891 13.90167969 -1.07925781 12.67835937 -1.08789062 11.41796875 C-1.09111328 10.25136719 -1.09433594 9.08476562 -1.09765625 7.8828125 C-1.10289307 6.80402832 -1.10812988 5.72524414 -1.11352539 4.61376953 C-1 2 -1 2 0 0 Z " fill="#396FA8" transform="translate(12,11)"/>
<path d="M0 0 C0.33 0 0.66 0 1 0 C2.20465156 4.65798604 3.28547412 9.23649415 4 14 C3.34 14 2.68 14 2 14 C2.26676204 15.98491642 2.26676204 15.98491642 3 18 C3.99 18.33 4.98 18.66 6 19 C6 17.35 6 15.7 6 14 C6.33 14 6.66 14 7 14 C7 16.31 7 18.62 7 21 C4.69 21 2.38 21 0 21 C0 18.69 0 16.38 0 14 C-1.7015625 14.0309375 -1.7015625 14.0309375 -3.4375 14.0625 C-7 14 -7 14 -8 13 C-8.125 10.5 -8.125 10.5 -8 8 C-7 7 -7 7 -3.4375 6.9375 C-2.303125 6.958125 -1.16875 6.97875 0 7 C0 4.69 0 2.38 0 0 Z " fill="#33679B" transform="translate(193,14)"/>
<path d="M0 0 C0.33 1.65 0.66 3.3 1 5 C5.29 5.33 9.58 5.66 14 6 C14 7.65 14 9.3 14 11 C11.37472811 11.05382106 8.75055287 11.09358313 6.125 11.125 C5.37863281 11.14175781 4.63226563 11.15851562 3.86328125 11.17578125 C1.90805539 11.1933959 -0.04742021 11.10320189 -2 11 C-4 9 -4 9 -4.1953125 7.0546875 C-4.13020833 5.03645833 -4.06510417 3.01822917 -4 1 C-2 0 -2 0 0 0 Z " fill="#3973B5" transform="translate(53,15)"/>
<path d="M0 0 C6.6 0 13.2 0 20 0 C20.33 1.32 20.66 2.64 21 4 C20 5 20 5 17.95874023 5.11352539 C17.08419189 5.10828857 16.20964355 5.10305176 15.30859375 5.09765625 C14.36435547 5.09443359 13.42011719 5.09121094 12.44726562 5.08789062 C11.45404297 5.07951172 10.46082031 5.07113281 9.4375 5.0625 C8.44041016 5.05798828 7.44332031 5.05347656 6.41601562 5.04882812 C3.94395151 5.03700007 1.47200482 5.02051849 -1 5 C-0.67 3.35 -0.34 1.7 0 0 Z " fill="#3673B7" transform="translate(49,9)"/>
<path d="M0 0 C1.39456452 0.00667256 2.78911118 0.01863093 4.18359375 0.03515625 C4.89451172 0.03966797 5.60542969 0.04417969 6.33789062 0.04882812 C8.09899388 0.06064761 9.86005411 0.07858362 11.62109375 0.09765625 C11.62109375 2.40765625 11.62109375 4.71765625 11.62109375 7.09765625 C10.30109375 7.09765625 8.98109375 7.09765625 7.62109375 7.09765625 C7.62109375 12.70765625 7.62109375 18.31765625 7.62109375 24.09765625 C9.27109375 24.42765625 10.92109375 24.75765625 12.62109375 25.09765625 C12.66381475 26.7637753 12.66173207 28.4314851 12.62109375 30.09765625 C11.62109375 31.09765625 11.62109375 31.09765625 8.0234375 31.1953125 C6.53512508 31.18863845 5.04682943 31.17667808 3.55859375 31.16015625 C2.79998047 31.15564453 2.04136719 31.15113281 1.25976562 31.14648438 C-0.61982496 31.13466305 -2.49937524 31.11672703 -4.37890625 31.09765625 C-4.37890625 29.11765625 -4.37890625 27.13765625 -4.37890625 25.09765625 C-4.04890625 25.09765625 -3.71890625 25.09765625 -3.37890625 25.09765625 C-3.37890625 26.74765625 -3.37890625 28.39765625 -3.37890625 30.09765625 C1.24109375 29.76765625 5.86109375 29.43765625 10.62109375 29.09765625 C10.62109375 28.10765625 10.62109375 27.11765625 10.62109375 26.09765625 C9.30109375 26.09765625 7.98109375 26.09765625 6.62109375 26.09765625 C6.62109375 19.49765625 6.62109375 12.89765625 6.62109375 6.09765625 C7.61109375 5.76765625 8.60109375 5.43765625 9.62109375 5.09765625 C9.95109375 3.77765625 10.28109375 2.45765625 10.62109375 1.09765625 C6.66109375 1.09765625 2.70109375 1.09765625 -1.37890625 1.09765625 C-1.04890625 3.07765625 -0.71890625 5.05765625 -0.37890625 7.09765625 C-1.69890625 6.76765625 -3.01890625 6.43765625 -4.37890625 6.09765625 C-4.42162725 4.4315372 -4.41954457 2.7638274 -4.37890625 1.09765625 C-3.37890625 0.09765625 -3.37890625 0.09765625 0 0 Z " fill="#315F8F" transform="translate(109.37890625,7.90234375)"/>
<path d="M0 0 C3.46434646 1.15478215 4.18158991 1.91243565 6 5 C6.99704086 11.80775214 5.72515456 18.42284823 4 25 C2.68 25 1.36 25 0 25 C0.16113281 24.14921875 0.32226562 23.2984375 0.48828125 22.421875 C1.00225454 18.98492381 1.16749348 15.72313258 1.1875 12.25 C1.20167969 11.12078125 1.21585938 9.9915625 1.23046875 8.828125 C1.29611396 5.8645556 1.29611396 5.8645556 -1 4 C-0.625 1.875 -0.625 1.875 0 0 Z " fill="#3774B6" transform="translate(174,10)"/>
<path d="M0 0 C2.40367591 2.77925027 2.75310468 4.69136858 3 8.3125 C0.69 8.3125 -1.62 8.3125 -4 8.3125 C-4.33 6.6625 -4.66 5.0125 -5 3.3125 C-4.34 2.9825 -3.68 2.6525 -3 2.3125 C-3.33 1.6525 -3.66 0.9925 -4 0.3125 C-5.47968324 0.45299518 -6.95874516 0.60004826 -8.4375 0.75 C-9.67306641 0.87181641 -9.67306641 0.87181641 -10.93359375 0.99609375 C-12.98662025 1.10180815 -12.98662025 1.10180815 -14 2.3125 C-15.99958364 2.35330783 -18.00045254 2.35504356 -20 2.3125 C-14.42615067 -3.85854747 -7.17490118 -4.03588191 0 0 Z " fill="#376DA7" transform="translate(148,9.6875)"/>
<path d="M0 0 C2.3125 0.1875 2.3125 0.1875 5 1 C8.21055554 5.06467008 8.40552322 8.41279602 8.375 13.5 C8.38273437 14.7890625 8.39046875 16.078125 8.3984375 17.40625 C7.98297311 21.15357589 7.33022906 23.0680686 5 26 C4.01 26.33 3.02 26.66 2 27 C1.67 26.01 1.34 25.02 1 24 C2.32 24 3.64 24 5 24 C5 17.07 5 10.14 5 3 C3.35 3.33 1.7 3.66 0 4 C0 2.68 0 1.36 0 0 Z " fill="#39689B" transform="translate(93,10)"/>
<path d="M0 0 C0.66 0 1.32 0 2 0 C2.33 2.31 2.66 4.62 3 7 C4.11375 6.938125 5.2275 6.87625 6.375 6.8125 C8.169375 6.9053125 8.169375 6.9053125 10 7 C10.99 8.485 10.99 8.485 12 10 C7.38 10 2.76 10 -2 10 C-2.1953125 3.9453125 -2.1953125 3.9453125 -2 2 C-1.34 1.34 -0.68 0.68 0 0 Z " fill="#3675B6" transform="translate(51,27)"/>
<path d="M0 0 C5.28 0 10.56 0 16 0 C16 1.65 16 3.3 16 5 C13.45297384 6.27351308 12.5717055 5.80191925 9.875 5.0625 C9.15054688 4.86785156 8.42609375 4.67320313 7.6796875 4.47265625 C7.12539063 4.31667969 6.57109375 4.16070312 6 4 C6 3.67 6 3.34 6 3 C3.03 2.505 3.03 2.505 0 2 C0 1.34 0 0.68 0 0 Z " fill="#2C67A6" transform="translate(54,32)"/>
<path d="M0 0 C1.66611905 -0.042721 3.33382885 -0.04063832 5 0 C6 1 6 1 6.0625 4.5625 C6.041875 5.696875 6.02125 6.83125 6 8 C7.7015625 7.9690625 7.7015625 7.9690625 9.4375 7.9375 C13 8 13 8 14 9 C14.125 11.5 14.125 11.5 14 14 C13 15 13 15 9.4375 15.0625 C8.303125 15.041875 7.16875 15.02125 6 15 C6.33 14.01 6.66 13.02 7 12 C9.0625 11.3125 9.0625 11.3125 11 11 C8.03 10.505 8.03 10.505 5 10 C4.57682292 7.98177083 4.15364583 5.96354167 3.73046875 3.9453125 C3.07691162 1.62953451 3.07691162 1.62953451 0 0 Z " fill="#1E5D9A" transform="translate(194,13)"/>
<path d="M0 0 C1.65 0 3.3 0 5 0 C5 1.32 5 2.64 5 4 C4.34 4 3.68 4 3 4 C3 4.99 3 5.98 3 7 C1.35 7 -0.3 7 -2 7 C-2 7.99 -2 8.98 -2 10 C-3.65 9.67 -5.3 9.34 -7 9 C-6.8125 7.125 -6.8125 7.125 -6 5 C-4.34795544 4.29788106 -2.68076231 3.63028587 -1 3 C-0.67 2.01 -0.34 1.02 0 0 Z " fill="#3573B4" transform="translate(144,29)"/>
<path d="M0 0 C1.01973129 3.05919388 1.11533602 5.12418025 1.09765625 8.32421875 C1.09443359 9.35224609 1.09121094 10.38027344 1.08789062 11.43945312 C1.07951172 12.51130859 1.07113281 13.58316406 1.0625 14.6875 C1.05798828 15.77095703 1.05347656 16.85441406 1.04882812 17.97070312 C1.03703743 20.64719085 1.02058063 23.32356777 1 26 C1.99 26 2.98 26 4 26 C5.35091528 23.29816945 5.33858058 20.88191794 5.5625 17.875 C5.64628906 16.77929688 5.73007812 15.68359375 5.81640625 14.5546875 C5.87699219 13.71164063 5.93757813 12.86859375 6 12 C6.66 12.33 7.32 12.66 8 13 C7.67 17.95 7.34 22.9 7 28 C4.36 28 1.72 28 -1 28 C-1.02891949 23.70834738 -1.04677118 19.41671964 -1.0625 15.125 C-1.07087891 13.90167969 -1.07925781 12.67835937 -1.08789062 11.41796875 C-1.09111328 10.25136719 -1.09433594 9.08476562 -1.09765625 7.8828125 C-1.10289307 6.80402832 -1.10812988 5.72524414 -1.11352539 4.61376953 C-1 2 -1 2 0 0 Z " fill="#294F79" transform="translate(12,11)"/>
<path d="M0 0 C2.1875 -0.5 2.1875 -0.5 5 0 C7.10353811 2.43100182 8.75029061 5.03640346 10 8 C9.67 8.66 9.34 9.32 9 10 C8.608125 9.525625 8.21625 9.05125 7.8125 8.5625 C5.58299509 6.64051301 3.85669256 6.51273969 1 6 C0.34 5.34 -0.32 4.68 -1 4 C-0.625 1.875 -0.625 1.875 0 0 Z " fill="#356AAC" transform="translate(14,9)"/>
<path d="M0 0 C1.485 0.99 1.485 0.99 3 2 C3.51171875 4.8203125 3.51171875 4.8203125 3.6875 8.125 C3.75324219 9.22070312 3.81898437 10.31640625 3.88671875 11.4453125 C3.92410156 12.28835937 3.96148437 13.13140625 4 14 C5.32 14.33 6.64 14.66 8 15 C8 13.35 8 11.7 8 10 C8.66 10.33 9.32 10.66 10 11 C10 12.98 10 14.96 10 17 C7.69 17 5.38 17 3 17 C1.78306124 14.56612247 1.68040104 12.58161154 1.4375 9.875 C1.35371094 8.96492188 1.26992188 8.05484375 1.18359375 7.1171875 C1.12300781 6.41851562 1.06242187 5.71984375 1 5 C0.67 5 0.34 5 0 5 C0 3.35 0 1.7 0 0 Z " fill="#174C88" transform="translate(30,22)"/>
<path d="M0 0 C1.66611905 -0.042721 3.33382885 -0.04063832 5 0 C6 1 6 1 6.125 3.5 C6 6 6 6 5 7 C2.30345146 7.07319621 -0.36691458 7.09242537 -3.0625 7.0625 C-3.82111328 7.05798828 -4.57972656 7.05347656 -5.36132812 7.04882812 C-7.24091871 7.0370068 -9.12046899 7.01907078 -11 7 C-11 5.02 -11 3.04 -11 1 C-10.67 1 -10.34 1 -10 1 C-10 2.65 -10 4.3 -10 6 C-5.38 5.67 -0.76 5.34 4 5 C4 4.01 4 3.02 4 2 C2.68 2 1.36 2 0 2 C0 1.34 0 0.68 0 0 Z " fill="#285784" transform="translate(116,32)"/>
<path d="M0 0 C5.75 -0.125 5.75 -0.125 8 1 C7.34 2.65 6.68 4.3 6 6 C4.33388095 6.042721 2.66617115 6.04063832 1 6 C0 5 0 5 -0.0625 2.4375 C-0.041875 1.633125 -0.02125 0.82875 0 0 Z " fill="#3C71AE" transform="translate(185,22)"/>
<path d="M0 0 C0.33 0.99 0.66 1.98 1 3 C0.34 3.66 -0.32 4.32 -1 5 C-2.32 5 -3.64 5 -5 5 C-5 6.65 -5 8.3 -5 10 C-7.475 9.01 -7.475 9.01 -10 8 C-9.67 6.02 -9.34 4.04 -9 2 C-6.69 2.33 -4.38 2.66 -2 3 C-1.34 2.01 -0.68 1.02 0 0 Z " fill="#29639C" transform="translate(143,29)"/>
<path d="M0 0 C1.32 0.33 2.64 0.66 4 1 C4.33 3.31 4.66 5.62 5 8 C3.68 8 2.36 8 1 8 C-0.35439668 5.29120665 -0.06501451 2.99066732 0 0 Z " fill="#3770B2" transform="translate(194,14)"/>
<path d="M0 0 C2.33944736 0.28730055 4.6739143 0.61936779 7 1 C7 1.99 7 2.98 7 4 C4.36 4 1.72 4 -1 4 C-1 1 -1 1 0 0 Z " fill="#3973B6" transform="translate(166,9)"/>
<path d="M0 0 C1.66611905 -0.042721 3.33382885 -0.04063832 5 0 C6 1 6 1 6.0625 4.5625 C6.041875 5.696875 6.02125 6.83125 6 8 C8.31 8 10.62 8 13 8 C13 8.33 13 8.66 13 9 C10.36 9 7.72 9 5 9 C4.731875 7.88625 4.46375 6.7725 4.1875 5.625 C3.34190981 1.78159049 3.34190981 1.78159049 0 0 Z " fill="#225181" transform="translate(194,13)"/>
<path d="M0 0 C2.97 0.495 2.97 0.495 6 1 C5.67 1.66 5.34 2.32 5 3 C0.38 3 -4.24 3 -9 3 C-9 2.67 -9 2.34 -9 2 C-6.03 2 -3.06 2 0 2 C0 1.34 0 0.68 0 0 Z " fill="#396FA9" transform="translate(64,11)"/>
<path d="M0 0 C2 1.75 2 1.75 4 4 C4 5.32 4 6.64 4 8 C2.35 8 0.7 8 -1 8 C-0.34 7.67 0.32 7.34 1 7 C0.67 4.69 0.34 2.38 0 0 Z " fill="#36689B" transform="translate(147,10)"/>
<path d="M0 0 C1.32 0.33 2.64 0.66 4 1 C2.68 1 1.36 1 0 1 C0 0.67 0 0.34 0 0 Z M-2.4375 0.9375 C-1.2309375 0.9684375 -1.2309375 0.9684375 0 1 C0 1.66 0 2.32 0 3 C-0.99 3.33 -1.98 3.66 -3 4 C-3.99 3.34 -4.98 2.68 -6 2 C-5 1 -5 1 -2.4375 0.9375 Z " fill="#3475B8" transform="translate(140,9)"/>
<path d="M0 0 C4.42857143 5.14285714 4.42857143 5.14285714 5 9 C2.5 6.75 2.5 6.75 0 4 C0 2.68 0 1.36 0 0 Z " fill="#386594" transform="translate(19,10)"/>
</svg>
