<?xml version="1.0" encoding="UTF-8"?>
<svg version="1.1" xmlns="http://www.w3.org/2000/svg" width="217" height="46">
<path d="M0 0 C71.61 0 143.22 0 217 0 C217 15.18 217 30.36 217 46 C145.39 46 73.78 46 0 46 C0 30.82 0 15.64 0 0 Z " fill="#FDFDFE" transform="translate(0,0)"/>
<path d="M0 0 C1.27875 0.00257812 2.5575 0.00515625 3.875 0.0078125 C5.15375 0.00523438 6.4325 0.00265625 7.75 0 C10.875 0.1328125 10.875 0.1328125 11.875 1.1328125 C11.94744053 3.15245449 11.95877188 5.17448374 11.9375 7.1953125 C11.92847656 8.30003906 11.91945312 9.40476562 11.91015625 10.54296875 C11.89855469 11.39761719 11.88695312 12.25226562 11.875 13.1328125 C12.535 13.1328125 13.195 13.1328125 13.875 13.1328125 C14.535 11.8128125 15.195 10.4928125 15.875 9.1328125 C19.34924287 13.33085597 19.31531536 17.25939294 19.16796875 22.47265625 C18.60834957 27.55399838 16.46354615 30.7002901 12.875 34.1328125 C12.215 35.4528125 11.555 36.7728125 10.875 38.1328125 C4.935 38.4628125 -1.005 38.7928125 -7.125 39.1328125 C-6.4067669 34.8234139 -5.81768808 31.96957215 -4.125 28.1328125 C-4.89585937 28.14441406 -5.66671875 28.15601562 -6.4609375 28.16796875 C-7.96527344 28.18150391 -7.96527344 28.18150391 -9.5 28.1953125 C-10.49773437 28.20691406 -11.49546875 28.21851562 -12.5234375 28.23046875 C-15.125 28.1328125 -15.125 28.1328125 -17.125 27.1328125 C-17.125 22.1828125 -17.125 17.2328125 -17.125 12.1328125 C-12.835 12.1328125 -8.545 12.1328125 -4.125 12.1328125 C-4.145625 10.3384375 -4.16625 8.5440625 -4.1875 6.6953125 C-4.2088122 4.84115128 -4.19726502 2.98568752 -4.125 1.1328125 C-3.125 0.1328125 -3.125 0.1328125 0 0 Z " fill="#E5ECFE" transform="translate(166.125,3.8671875)"/>
<path d="M0 0 C1.27875 0.00257812 2.5575 0.00515625 3.875 0.0078125 C5.15375 0.00523438 6.4325 0.00265625 7.75 0 C10.875 0.1328125 10.875 0.1328125 11.875 1.1328125 C11.94758946 3.31920703 11.95873783 5.50781639 11.9375 7.6953125 C11.92847656 8.89285156 11.91945312 10.09039062 11.91015625 11.32421875 C11.89855469 12.25105469 11.88695312 13.17789062 11.875 14.1328125 C9.18328906 15.59006988 6.81269498 16.44130169 3.8125 17.0078125 C1.07753475 17.66359413 0.03799934 17.98032925 -2.0625 19.9453125 C-3.41680834 22.49980428 -3.41680834 22.49980428 -4.125 27.1328125 C-8.415 27.1328125 -12.705 27.1328125 -17.125 27.1328125 C-17.125 22.1828125 -17.125 17.2328125 -17.125 12.1328125 C-12.835 12.1328125 -8.545 12.1328125 -4.125 12.1328125 C-4.145625 10.3384375 -4.16625 8.5440625 -4.1875 6.6953125 C-4.2088122 4.84115128 -4.19726502 2.98568752 -4.125 1.1328125 C-3.125 0.1328125 -3.125 0.1328125 0 0 Z " fill="#4186F6" transform="translate(166.125,3.8671875)"/>
<path d="M0 0 C3.3 0 6.6 0 10 0 C10.66 2.97 11.32 5.94 12 9 C12.33 9 12.66 9 13 9 C13.66 6.03 14.32 3.06 15 0 C18.3 0 21.6 0 25 0 C25 6.93 25 13.86 25 21 C22.69 21 20.38 21 18 21 C17.67 18.36 17.34 15.72 17 13 C16.34 15.31 15.68 17.62 15 20 C13.02 20 11.04 20 9 20 C8.34 17.36 7.68 14.72 7 12 C6.67 14.97 6.34 17.94 6 21 C4.02 21 2.04 21 0 21 C0 14.07 0 7.14 0 0 Z " fill="#4487F6" transform="translate(31,12)"/>
<path d="M0 0 C1.98 0 3.96 0 6 0 C6 7.26 6 14.52 6 22 C4.35 22 2.7 22 1 22 C1 21.34 1 20.68 1 20 C0.01 20.66 -0.98 21.32 -2 22 C-5.32153671 22.41519209 -7.16890664 22.63717157 -9.875 20.5625 C-11.56850528 16.7050713 -11.67509931 13.14162049 -11 9 C-9.375 6.375 -9.375 6.375 -7 5 C-3.75 5.25 -3.75 5.25 -1 6 C-0.67 4.02 -0.34 2.04 0 0 Z " fill="#498AF6" transform="translate(90,11)"/>
<path d="M0 0 C2.16756667 1.5940849 2.88555039 2.48211553 3.46875 5.12109375 C3.55229432 11.31381615 3.55229432 11.31381615 0.9375 14.5625 C-2.74543837 16.36478899 -4.94295625 16.57957768 -9 16 C-11.9375 14.5625 -11.9375 14.5625 -14 12 C-14.71069254 8.85099645 -14.69816628 6.15040323 -14 3 C-10.35275904 -1.94142324 -5.49469923 -1.71837972 0 0 Z " fill="#4588F6" transform="translate(143,17)"/>
<path d="M0 0 C2.875 1.625 2.875 1.625 5 4 C5.8125 7.25 5.8125 7.25 6 10 C2.04 10 -1.92 10 -6 10 C-5.67 10.66 -5.34 11.32 -5 12 C-2.97536745 12.65213292 -2.97536745 12.65213292 -1 13 C-1 12.34 -1 11.68 -1 11 C0.98 11 2.96 11 5 11 C4.66411682 13.51912388 4.42645046 14.67196119 2.375 16.25 C-2.15736362 17.68127272 -5.65208066 17.6596201 -9.9375 15.5625 C-12.55692997 12.3080567 -12.73020174 10.22587726 -12.48046875 6.12890625 C-12 4 -12 4 -9.9375 1.4375 C-6.25456163 -0.36478899 -4.05704375 -0.57957768 0 0 Z " fill="#5391F7" transform="translate(71,16)"/>
<path d="M0 0 C2.9375 1.8125 2.9375 1.8125 5 4 C5 4.99 5 5.98 5 7 C3.02 7 1.04 7 -1 7 C-1.33 6.34 -1.66 5.68 -2 5 C-3.32 5.33 -4.64 5.66 -6 6 C-6 7.65 -6 9.3 -6 11 C-4.68 11.33 -3.36 11.66 -2 12 C-1.67 11.34 -1.34 10.68 -1 10 C0.98 10 2.96 10 5 10 C4.6875 12.375 4.6875 12.375 4 15 C0.2864857 17.4756762 -2.69667338 17.64466177 -7 17 C-10 15.5625 -10 15.5625 -12 13 C-12.70473264 9.8518091 -12.71035503 7.14750806 -12 4 C-8.55770534 -0.27679033 -5.3165665 -0.7595095 0 0 Z " fill="#4789F6" transform="translate(121,16)"/>
<path d="M0 0 C2.125 0.375 2.125 0.375 4 1 C4 1.66 4 2.32 4 3 C8.455 2.505 8.455 2.505 13 2 C13 3.65 13 5.3 13 7 C12.01 7.33 11.02 7.66 10 8 C10 7.34 10 6.68 10 6 C8.02 6 6.04 6 4 6 C3.67 6.99 3.34 7.98 3 9 C-0.875 8.125 -0.875 8.125 -2 7 C-2.1875 4.5625 -2.1875 4.5625 -2 2 C-1.34 1.34 -0.68 0.68 0 0 Z " fill="#EBF2FD" transform="translate(116,20)"/>
<path d="M0 0 C1.65 0 3.3 0 5 0 C5 4.95 5 9.9 5 15 C3.35 15 1.7 15 0 15 C0 10.05 0 5.1 0 0 Z " fill="#3B82F6" transform="translate(100,17)"/>
<path d="M0 0 C2.125 0.375 2.125 0.375 4 1 C4 3.31 4 5.62 4 8 C2.125 8.625 2.125 8.625 0 9 C-2 7 -2 7 -2.25 4.5 C-2 2 -2 2 0 0 Z " fill="#E6EFFD" transform="translate(136,20)"/>
<path d="M0 0 C0.82757813 0.49113281 0.82757813 0.49113281 1.671875 0.9921875 C4.38780923 2.16787715 6.30551759 2.20248638 9.25 2.125 C10.58804688 2.09792969 10.58804688 2.09792969 11.953125 2.0703125 C12.62859375 2.04710937 13.3040625 2.02390625 14 2 C13.67 2.99 13.34 3.98 13 5 C8.05 5 3.1 5 -2 5 C-1.34 3.35 -0.68 1.7 0 0 Z " fill="#4B8CF6" transform="translate(164,37)"/>
<path d="M0 0 C2.475 0.495 2.475 0.495 5 1 C5 2.65 5 4.3 5 6 C3.35 6.33 1.7 6.66 0 7 C0 4.69 0 2.38 0 0 Z " fill="#F0F5FE" transform="translate(85,21)"/>
<path d="M0 0 C0 0.66 0 1.32 0 2 C-0.58007812 2.18175781 -1.16015625 2.36351562 -1.7578125 2.55078125 C-6.39147293 4.0418106 -10.69762355 5.68333576 -15 8 C-13.97803186 5.2516563 -13.32699573 4.18172662 -10.72265625 2.734375 C-9.40587891 2.24710938 -9.40587891 2.24710938 -8.0625 1.75 C-7.18722656 1.41484375 -6.31195313 1.0796875 -5.41015625 0.734375 C-3 0 -3 0 0 0 Z " fill="#5B95F7" transform="translate(177,26)"/>
<path d="M0 0 C2.31 0 4.62 0 7 0 C7 1.32 7 2.64 7 4 C4.69 4 2.38 4 0 4 C0 2.68 0 1.36 0 0 Z " fill="#5E98F7" transform="translate(99,11)"/>
<path d="M0 0 C3.63 0 7.26 0 11 0 C11 0.33 11 0.66 11 1 C9.02 1 7.04 1 5 1 C5 1.66 5 2.32 5 3 C3.35 2.67 1.7 2.34 0 2 C0 1.34 0 0.68 0 0 Z " fill="#EBF2FD" transform="translate(65,26)"/>
</svg>
